<?xml version="1.0" encoding="UTF-8"?>
<!DOCTYPE svg PUBLIC "-//W3C//DTD SVG 1.1//EN" "http://www.w3.org/Graphics/SVG/1.1/DTD/svg11.dtd">
<!-- Creator: CorelDRAW X8 -->
<svg xmlns="http://www.w3.org/2000/svg" xml:space="preserve" width="170px" height="170px" version="1.1" style="shape-rendering:geometricPrecision; text-rendering:geometricPrecision; image-rendering:optimizeQuality; fill-rule:evenodd; clip-rule:evenodd"
viewBox="0 0 170 170"
 xmlns:xlink="http://www.w3.org/1999/xlink">
 <defs>
  <style type="text/css">
   <![CDATA[
    .fil6 {fill:#3D3B3A}
    .fil0 {fill:#3F2311}
    .fil1 {fill:#9A5438}
    .fil8 {fill:#D6825B}
    .fil7 {fill:#E4B17C}
    .fil3 {fill:#ED8221}
    .fil2 {fill:#F4B57E}
    .fil4 {fill:#F6BF85}
    .fil5 {fill:#F7C897}
   ]]>
  </style>
 </defs>
 <g id="Capa_x0020_1">
  <metadata id="CorelCorpID_0Corel-Layer"/>
  <g id="_1904556496976">
   <path class="fil0" d="M128 99c0,12 9,22 4,36 -8,20 -26,16 -40,16l-17 0c-14,0 -31,1 -36,-19 -4,-13 3,-21 3,-32l-1 -31c1,-41 16,-47 44,-47 33,-5 42,13 44,47l-1 30z"/>
   <path class="fil1" d="M101 150c1,-1 20,-15 20,-15 8,3 10,27 11,38l-20 0 -11 -23z"/>
   <path class="fil2" d="M84 120l-9 0 0 5c0,4 0,3 -3,5 0,0 -4,2 -5,3 4,12 7,29 15,40l2 0 3 0c7,-11 10,-28 14,-40 -1,-1 -4,-3 -4,-3 -3,-2 -4,-1 -4,-5l0 -5 -9 0z"/>
   <path class="fil1" d="M67 150c0,-1 -19,-15 -19,-15 -8,3 -11,27 -11,38l20 0 10 -23z"/>
   <path class="fil3" d="M79 142c-8,-3 -9,-11 -7,-12 -4,1 -14,3 -20,4l0 0 0 0 -1 0 0 0 0 0 0 0 0 0 0 0 0 1 0 0 0 0 0 0 0 0 -1 0 0 0 0 0 0 0 0 0 0 0 0 0 0 0 0 0 0 0 0 0 -1 0 0 0 0 0 0 0 0 0 0 0 0 0 0 0 0 0 0 0 0 0 0 0 0 0 0 0 -1 0 0 0 0 0 0 0 0 0c0,0 0,0 0,0l0 0 0 0c0,0 0,0 0,0l0 0c0,0 0,0 0,1l0 0 0 0c0,0 0,0 0,0l0 0 0 0c0,0 0,0 -1,0 1,2 2,8 4,16 -2,8 -6,13 -3,21l6 0 30 0 0 0 1 0 30 0 6 0c3,-8 -2,-13 -3,-21 1,-8 3,-14 3,-16 0,0 0,0 0,0l0 0 0 0c0,0 0,0 0,0l0 0 0 0c0,-1 0,-1 0,-1l0 0c0,0 0,0 0,0l0 0 0 0 0 0 0 0 0 0 0 0 -1 0 0 0 0 0 0 0 0 0 0 0 0 0 0 0 0 0 0 0 0 0 0 0 0 0 0 0 0 0 -1 0 0 0 0 0 0 0 0 0 0 0 0 0 0 0 0 0 0 0 0 0 -1 0 0 0 0 0 0 0 0 0 0 -1 0 0 0 0 0 0 0 0 0 0 -1 0 0 0 0 0c-6,-1 -16,-3 -20,-4 2,1 1,9 -7,12l0 0 -5 9 -1 0 0 0 -5 -9 0 0z"/>
   <g>
    <path class="fil4" d="M58 76c2,6 -1,12 -6,13 -5,1 -10,-2 -12,-9 -1,-7 1,-13 6,-14 5,-1 11,3 12,10z"/>
    <path class="fil4" d="M112 76c-1,6 2,12 7,13 5,1 10,-2 11,-9 2,-7 -1,-13 -6,-14 -5,-1 -10,3 -12,10z"/>
   </g>
   <path class="fil5" d="M85 22l0 0c-3,0 -5,0 -5,0l0 0c0,0 -1,0 -1,0 -10,1 -20,6 -27,15 -6,9 -7,20 -6,30 1,27 16,57 39,58 23,-1 38,-31 40,-58 0,-10 -1,-21 -7,-30 -6,-9 -16,-14 -27,-15 0,0 0,0 0,0l0 0c0,0 -3,0 -6,0l0 0z"/>
   <path class="fil0" d="M102 32c-1,2 0,10 9,22 9,12 10,13 10,13 0,0 0,21 1,18 1,-2 3,-20 3,-20 0,0 2,-9 0,-18 -3,-10 -5,-14 -9,-15 -5,-2 -14,0 -14,0z"/>
   <path class="fil0" d="M51 58c-2,2 -7,2 -7,2 0,2 3,27 5,25l2 -27z"/>
   <path class="fil0" d="M121 67c0,-7 4,-23 2,-27 -5,-12 -14,-17 -30,-19 -5,0 -9,0 -9,0 9,15 17,34 37,46z"/>
   <path class="fil0" d="M106 36c-3,20 -45,14 -58,37 -16,-23 8,-70 48,-52l10 15z"/>
   <g>
    <path class="fil6" d="M67 84c2,0 3,-1 3,-3 0,-2 -1,-3 -3,-3 -2,0 -3,1 -3,3 0,2 1,3 3,3z"/>
    <path class="fil6" d="M105 84c2,0 3,-1 3,-3 0,-2 -1,-3 -3,-3 -1,0 -3,1 -3,3 0,2 2,3 3,3z"/>
   </g>
   <path class="fil7" d="M80 97c0,0 0,0 0,0 0,-1 0,-1 0,-1 2,-2 4,-9 5,-17 2,0 -1,13 -2,16 1,0 2,0 4,0 4,0 7,1 7,2 0,0 -3,1 -7,1 -4,0 -7,0 -7,-1z"/>
   <g>
    <path class="fil0" d="M94 74c-2,0 1,-5 10,-5 11,0 14,5 10,4 -9,-3 -17,-1 -20,1z"/>
    <path class="fil0" d="M76 74c2,0 -1,-5 -10,-5 -10,0 -14,5 -9,4 8,-3 16,-1 19,1z"/>
   </g>
   <path class="fil8" d="M96 104c-2,8 -19,8 -21,0 6,6 15,6 21,0z"/>
  </g>
 </g>
</svg>
