<?xml version="1.0" encoding="UTF-8"?>
<!DOCTYPE svg PUBLIC "-//W3C//DTD SVG 1.1//EN" "http://www.w3.org/Graphics/SVG/1.1/DTD/svg11.dtd">
<!-- Creator: CorelDRAW X8 -->
<svg xmlns="http://www.w3.org/2000/svg" xml:space="preserve" width="170px" height="170px" version="1.1" style="shape-rendering:geometricPrecision; text-rendering:geometricPrecision; image-rendering:optimizeQuality; fill-rule:evenodd; clip-rule:evenodd"
viewBox="0 0 170 170"
 xmlns:xlink="http://www.w3.org/1999/xlink">
 <defs>
  <style type="text/css">
   <![CDATA[
    .fil8 {fill:#3D3B3A}
    .fil6 {fill:#A74124}
    .fil5 {fill:#D6825B}
    .fil10 {fill:#E4B17C}
    .fil0 {fill:#E6A123}
    .fil9 {fill:#ED7E21}
    .fil7 {fill:#ED8221}
    .fil2 {fill:#F2AA1C}
    .fil1 {fill:#F4B57E}
    .fil3 {fill:#F6BF85}
    .fil4 {fill:#F7C897}
   ]]>
  </style>
 </defs>
 <g id="Capa_x0020_1">
  <metadata id="CorelCorpID_0Corel-Layer"/>
  <g id="_1904627716816">
   <path class="fil0" d="M71 151c-1,-1 -20,-10 -20,-10 -8,3 -10,22 -11,33l20 0 11 -23z"/>
   <path class="fil0" d="M104 151c1,-1 20,-10 20,-10 9,3 10,22 11,33l-20 0 -11 -23z"/>
   <path class="fil1" d="M88 121l-9 0 0 5c0,4 -1,3 -4,5 0,0 -3,2 -4,3 4,12 7,29 14,40l3 0 2 0c8,-11 11,-28 15,-40 -1,-1 -5,-3 -5,-3 -3,-2 -3,-1 -3,-5l0 -5 -9 0z"/>
   <path class="fil2" d="M75 131c-5,2 -22,9 -24,10 2,4 4,18 6,33l31 0 30 0c2,-15 5,-29 6,-33 -2,-1 -19,-8 -24,-10 3,19 -28,16 -25,0z"/>
   <path class="fil3" d="M111 79c-1,7 3,12 10,13 7,1 13,-2 14,-9 1,-6 -3,-13 -9,-14 -7,-1 -13,3 -15,10z"/>
   <path class="fil3" d="M66 79c1,7 -3,12 -10,13 -6,1 -13,-2 -14,-9 -1,-6 3,-13 10,-14 6,-1 13,3 14,10z"/>
   <path class="fil4" d="M121 38c-6,-9 -16,-14 -27,-15 0,0 0,0 0,0l0 0c0,0 -3,0 -5,0 -3,0 -6,0 -6,0l0 0c0,0 0,0 0,0 -11,1 -21,6 -27,15 -6,9 -7,20 -7,30 1,27 4,57 40,58 36,0 38,-31 39,-58 1,-10 0,-21 -7,-30z"/>
   <path class="fil5" d="M96 98c0,1 0,2 0,2 0,5 -3,8 -8,8 -4,0 -8,-3 -8,-8 0,0 0,-1 1,-2l15 0z"/>
   <path class="fil6" d="M51 76c1,-10 1,-27 9,-27 1,0 27,-11 57,-11 7,0 9,19 9,32 0,3 0,6 0,8 0,2 0,3 0,5 0,1 1,2 1,2 1,0 1,-3 2,-4 0,-5 0,-11 0,-16 0,-7 0,-18 -6,-28 -2,-4 -4,-8 -8,-11 -11,-8 -32,-4 -44,0 -9,2 -18,6 -21,14 -3,10 -3,17 -2,35 0,2 1,4 1,6 0,2 0,3 1,4 0,3 1,1 1,-1 0,-2 0,-5 0,-8z"/>
   <path class="fil6" d="M119 29c-1,-27 -52,-4 -59,-3 -16,3 -23,-8 -23,-8 -10,30 11,55 59,24 8,-6 19,-2 19,-2 8,11 12,13 13,28 0,0 2,-11 4,-22 2,-11 -3,-18 -13,-17z"/>
   <path class="fil6" d="M50 85c0,2 4,24 8,28 3,4 14,11 16,11 1,0 11,2 15,3 4,-1 13,-3 15,-3 2,0 13,-7 16,-11 3,-4 9,-31 8,-29 -7,13 -8,32 -34,32 -2,0 -4,-2 -5,-3 -1,1 -4,3 -5,3 -27,0 -28,-18 -34,-31z"/>
   <path class="fil6" d="M65 101c8,4 22,1 24,-2 1,3 15,6 23,2 -12,-2 -18,-8 -23,-6 -6,-2 -12,4 -24,6z"/>
   <path class="fil7" d="M61 137c0,0 2,37 2,37l7 0 -3 -40 -6 3z"/>
   <path class="fil7" d="M115 137c-1,0 -2,37 -2,37l-7 0 2 -40 7 3z"/>
   <g>
    <path class="fil8" d="M69 84c1,0 3,-1 3,-3 0,-1 -2,-3 -3,-3 -2,0 -3,2 -3,3 0,2 1,3 3,3z"/>
    <path class="fil8" d="M109 84c1,0 3,-1 3,-3 0,-1 -2,-3 -3,-3 -2,0 -3,2 -3,3 0,2 1,3 3,3z"/>
   </g>
   <g>
    <path class="fil9" d="M59 72c-1,-2 4,-3 10,-3 9,1 13,5 9,5 -3,0 -19,-2 -19,-2z"/>
    <path class="fil9" d="M118 72c1,-1 -4,-2 -9,-2 -9,0 -14,4 -10,4 3,0 19,-1 19,-2z"/>
   </g>
   <path class="fil10" d="M82 93c0,0 0,0 0,0 0,0 0,0 0,0 2,-3 4,-10 5,-18 1,0 -1,13 -2,17 1,-1 2,-1 4,-1 3,0 6,1 6,2 0,1 -3,2 -6,2 -4,0 -7,-1 -7,-2z"/>
  </g>
 </g>
</svg>
