<?xml version="1.0" encoding="UTF-8"?>
<!DOCTYPE svg PUBLIC "-//W3C//DTD SVG 1.1//EN" "http://www.w3.org/Graphics/SVG/1.1/DTD/svg11.dtd">
<!-- Creator: CorelDRAW X8 -->
<svg xmlns="http://www.w3.org/2000/svg" xml:space="preserve" width="170px" height="170px" version="1.1" style="shape-rendering:geometricPrecision; text-rendering:geometricPrecision; image-rendering:optimizeQuality; fill-rule:evenodd; clip-rule:evenodd"
viewBox="0 0 170 170"
 xmlns:xlink="http://www.w3.org/1999/xlink">
 <defs>
  <style type="text/css">
   <![CDATA[
    .fil9 {fill:#3D3B3A}
    .fil6 {fill:#3F2311}
    .fil10 {fill:#595757}
    .fil7 {fill:#756E69}
    .fil0 {fill:#7C7772}
    .fil1 {fill:#7E7977}
    .fil3 {fill:#857E79}
    .fil8 {fill:#9E9993}
    .fil11 {fill:#D6825B}
    .fil12 {fill:#E4B17C}
    .fil2 {fill:#F4B57E}
    .fil4 {fill:#F6BF85}
    .fil5 {fill:#F7C897}
   ]]>
  </style>
 </defs>
 <g id="Capa_x0020_1">
  <metadata id="CorelCorpID_0Corel-Layer"/>
  <g id="_1904627744912">
   <polygon class="fil0" points="73,133 73,125 98,125 98,133 "/>
   <path class="fil1" d="M69 150c-1,-1 -19,-9 -19,-9 -8,2 -10,20 -11,31l19 0 11 -22z"/>
   <path class="fil1" d="M101 150c1,-1 19,-9 19,-9 8,2 10,20 10,31l-19 0 -10 -22z"/>
   <path class="fil2" d="M85 121l-9 0 0 5c0,3 0,3 -3,4 0,0 -3,3 -4,3 3,12 6,28 14,39l2 0 2 0c7,-11 10,-27 14,-39 -1,0 -4,-3 -4,-3 -3,-1 -4,-1 -4,-4l0 -5 -8 0z"/>
   <path class="fil3" d="M85 150c0,0 -2,-3 -3,-5 -4,-6 -9,-14 -9,-15 -5,3 -22,9 -23,11 1,3 3,16 5,31l30 0 29 0c2,-15 4,-28 6,-31 -2,-2 -19,-8 -23,-11 0,1 -4,9 -7,15 -2,2 -5,5 -5,5z"/>
   <path class="fil4" d="M107 83c-1,7 3,12 10,14 6,1 12,-3 13,-10 1,-7 -3,-13 -9,-14 -6,-2 -12,3 -14,10z"/>
   <path class="fil4" d="M64 83c1,7 -3,12 -10,14 -6,1 -12,-3 -13,-10 -1,-7 3,-13 9,-14 6,-2 12,3 14,10z"/>
   <path class="fil5" d="M117 42c-6,-9 -16,-14 -26,-15 0,0 0,0 0,0l0 0c0,0 -3,0 -5,0 -3,0 -5,0 -5,0l0 0c-1,0 -1,0 -1,0 -10,1 -20,6 -26,15 -6,8 -7,18 -6,28 0,8 1,20 2,28 10,36 62,37 71,0 1,-8 2,-20 2,-28 1,-10 0,-20 -6,-28z"/>
   <path class="fil6" d="M54 56c0,1 3,-10 9,-10 6,0 46,2 48,-1 7,9 11,44 12,44 2,0 2,-19 2,-21 0,-9 3,-27 -14,-38 -10,-7 -32,-7 -44,-3 -8,2 -16,9 -19,17 -3,9 -3,16 -2,34 0,2 1,4 1,6 0,1 0,3 0,4 2,7 2,-24 7,-32z"/>
   <path class="fil6" d="M52 46c0,1 1,5 15,9 13,5 26,5 25,5 -1,0 -4,-3 -4,-3 0,0 10,3 17,2 7,0 12,-4 11,-4 -1,0 -5,-2 -5,-2 0,0 9,-4 14,-10 5,-6 6,-11 6,-11 -1,1 -5,3 -4,2 0,-1 1,-9 1,-9 0,0 -4,2 -5,3 -1,0 1,-7 1,-7 0,0 -10,1 -16,1 -6,-1 -9,-3 -18,-3 -9,-1 -14,2 -14,2l1 -3c0,0 -12,3 -15,6 -3,2 -6,7 -6,7 0,0 -4,-1 -6,-1 -2,0 -4,1 -4,1l6 2c0,0 -2,1 -4,2 -2,2 -4,4 -3,3 1,0 5,-1 5,-1l2 9z"/>
   <path class="fil7" d="M77 138c0,0 3,0 3,0l2 7 -7 -3 2 -4z"/>
   <path class="fil8" d="M73 125l7 13c0,0 -7,7 -7,7 0,0 -3,-13 -3,-13 0,-1 3,-7 3,-7z"/>
   <path class="fil7" d="M95 138c-1,0 -4,0 -4,0l-1 7 6 -3 -1 -4z"/>
   <path class="fil8" d="M98 125l-7 13c0,0 8,7 7,7 0,0 4,-13 3,-13 0,-1 -3,-7 -3,-7z"/>
   <path class="fil9" d="M52 73c-1,2 -2,3 -3,5 0,0 -1,0 -1,1 -1,0 -1,2 -1,2 1,0 2,0 2,0 0,11 6,18 17,18 5,0 9,-2 13,-8 1,-3 2,-6 3,-8 0,-2 0,-3 1,-3 0,0 2,0 3,0 0,0 2,0 2,0 1,0 1,1 1,3 1,2 2,5 4,8 3,6 7,8 12,8 11,0 17,-7 17,-18 0,0 1,0 2,0 0,0 0,-2 0,-2 -1,-1 -2,-1 -2,-1 -1,-2 -2,-3 -3,-5 -2,-2 -5,-3 -10,-3 -10,-1 -36,-1 -46,0 -5,0 -9,1 -11,3zm31 5l0 0c-1,0 -1,-1 -1,-1 0,-2 0,-5 -3,-6l13 0c-3,1 -2,4 -3,6 0,0 0,1 -1,1 0,-1 -5,-1 -5,0zm9 -5l0 0c1,-1 5,-2 6,-2 5,0 17,0 20,4 2,1 2,3 2,5 1,2 0,5 0,7 -2,8 -7,11 -15,11 -10,-1 -15,-12 -14,-21 0,-2 0,-3 1,-4zm-13 0l0 0c1,1 1,2 2,4 0,9 -5,20 -15,21 -8,0 -13,-3 -15,-11 0,-2 0,-5 0,-7 0,-2 0,-4 2,-5 3,-4 15,-4 20,-4 2,0 5,1 6,2z"/>
   <path class="fil10" d="M52 75c-1,1 -2,3 -2,5 0,2 0,5 1,7 1,4 3,7 6,9 2,2 5,2 9,2 10,-1 15,-12 15,-21 0,-2 -1,-4 -2,-4 -1,-2 -4,-2 -6,-2 -4,0 -13,-1 -18,2 -1,0 -2,1 -3,2z"/>
   <path class="fil10" d="M90 77c0,9 5,20 15,21 4,0 7,-1 9,-2 3,-2 5,-5 6,-9 0,-2 1,-5 1,-7 0,-2 -1,-4 -2,-5 -1,-1 -2,-2 -3,-2 -5,-3 -14,-2 -18,-2 -2,0 -5,0 -6,2 -1,0 -2,2 -2,4z"/>
   <path class="fil11" d="M100 108c-2,4 -7,6 -13,6 -6,0 -11,-2 -13,-6 3,3 8,5 13,5 5,0 10,-2 13,-5z"/>
   <path class="fil12" d="M80 104c0,0 0,0 0,0 0,0 0,0 1,0 1,-3 3,-9 4,-17 1,0 -1,13 -2,16 1,0 2,0 4,0 3,0 6,0 6,1 0,1 -3,2 -6,2 -4,0 -6,-1 -7,-2z"/>
  </g>
 </g>
</svg>
