<?xml version="1.0" encoding="UTF-8"?>
<!DOCTYPE svg PUBLIC "-//W3C//DTD SVG 1.1//EN" "http://www.w3.org/Graphics/SVG/1.1/DTD/svg11.dtd">
<!-- Creator: CorelDRAW X8 -->
<svg xmlns="http://www.w3.org/2000/svg" xml:space="preserve" width="170px" height="170px" version="1.1" style="shape-rendering:geometricPrecision; text-rendering:geometricPrecision; image-rendering:optimizeQuality; fill-rule:evenodd; clip-rule:evenodd"
viewBox="0 0 170 170"
 xmlns:xlink="http://www.w3.org/1999/xlink">
 <defs>
  <style type="text/css">
   <![CDATA[
    .fil0 {fill:#3D3B3A}
    .fil3 {fill:#44897C}
    .fil1 {fill:#487C72}
    .fil7 {fill:#595757}
    .fil8 {fill:#D6825B}
    .fil6 {fill:#E4B17C}
    .fil2 {fill:#F4B57E}
    .fil4 {fill:#F6BF85}
    .fil5 {fill:#F7C897}
   ]]>
  </style>
 </defs>
 <g id="Capa_x0020_1">
  <metadata id="CorelCorpID_0Corel-Layer"/>
  <g id="_1904627770096">
   <path class="fil0" d="M86 150c12,0 21,-14 21,-31 0,-18 -9,-31 -21,-31 -12,0 -21,13 -21,31 0,17 9,31 21,31z"/>
   <path class="fil1" d="M102 146c1,-1 20,-15 20,-15 8,3 11,27 12,39l-21 0 -11 -24z"/>
   <path class="fil2" d="M85 115l-9 0 0 6c0,3 -14,7 -17,8 -8,14 16,23 24,35l3 0 2 0c8,-12 30,-20 23,-35 -3,-1 -17,-5 -17,-8l0 -6 -9 0z"/>
   <path class="fil1" d="M66 148c-1,-1 -18,-17 -18,-17 -8,3 -11,27 -12,39l21 0 9 -22z"/>
   <path class="fil3" d="M59 129c-3,0 -5,1 -7,1l0 0 -1 0 0 0 0 0 0 0 0 0 0 0 0 0 0 0 0 0 0 0 -1 0 0 1 0 0 0 0 0 0 0 0 0 0 0 0 0 0 0 0 0 0 -1 0 0 0 0 0 0 0 0 0 0 0 0 0 0 0 0 0 0 0 0 0 0 0 0 0 0 0 -1 0 0 0 0 0 0 0 0 0 0 0 0 0c0,0 0,0 0,0l0 0 0 0c0,0 0,0 0,0l0 0c0,0 0,0 0,0l0 0 0 0c-1,1 -1,1 -1,1l0 0 0 0c0,0 0,0 0,0 1,2 2,8 4,16 -2,8 -6,14 -3,22l6 0 31 0 0 0 0 0 31 0 6 0c3,-8 -1,-14 -3,-22 2,-8 3,-14 4,-16 0,0 0,0 0,0l0 0 0 0c0,0 0,0 -1,-1l0 0 0 0c0,0 0,0 0,0l0 0c0,0 0,0 0,0l0 0 0 0 0 0 0 0 0 0 0 0 0 0 0 0 0 0 -1 0 0 0 0 0 0 0 0 0 0 0 0 0 0 0 0 0 0 0 0 0 0 0 0 0 0 0 -1 0 0 0 0 0 0 0 0 0 0 0 0 0 0 0 0 0 0 0 0 -1 -1 0 0 0 0 0 0 0 0 0 0 0 0 0 0 0 0 0 0 0 -1 0 0 0c-2,0 -4,-1 -7,-1 0,1 0,2 0,3 0,11 -12,19 -26,19 -14,0 -26,-8 -26,-19 0,-1 0,-2 0,-3z"/>
   <g>
    <path class="fil4" d="M58 73c2,7 -1,12 -6,13 -5,2 -11,-2 -12,-9 -2,-6 1,-13 6,-14 5,-1 11,3 12,10z"/>
    <path class="fil4" d="M113 73c-1,7 2,12 7,13 5,2 10,-2 12,-9 1,-6 -2,-13 -7,-14 -5,-1 -10,3 -12,10z"/>
   </g>
   <path class="fil5" d="M86 16l0 0c-3,0 -6,0 -6,0l0 0c0,0 0,0 0,0 -11,0 -21,6 -28,15 -6,9 -7,20 -7,31 2,27 17,58 41,58 23,0 39,-31 40,-58 1,-11 0,-22 -7,-31 -6,-9 -16,-15 -27,-15 0,0 0,0 -1,0l0 0c0,0 -2,0 -5,0l0 0z"/>
   <path class="fil0" d="M103 26c-1,2 -1,10 9,22 9,13 10,14 10,14 0,0 0,21 1,19 1,-3 4,-19 4,-20 0,-1 1,-11 -1,-20 -2,-10 -5,-14 -9,-15 -4,-2 -14,0 -14,0z"/>
   <path class="fil0" d="M51 53c-2,1 -7,6 -7,6 1,7 3,21 5,22 0,-2 1,-15 2,-28z"/>
   <path class="fil0" d="M122 62c0,-7 4,-23 2,-28 -5,-12 -14,-18 -30,-19 -5,-1 -9,0 -9,0 9,15 17,35 37,47z"/>
   <path class="fil0" d="M107 30c-4,20 -46,14 -60,38 -15,-24 9,-71 50,-53l10 15z"/>
   <g>
    <path class="fil0" d="M65 78c2,0 3,-1 3,-3 0,-2 -1,-3 -3,-3 -1,0 -3,1 -3,3 0,2 2,3 3,3z"/>
    <path class="fil0" d="M106 78c2,0 3,-1 3,-3 0,-2 -1,-3 -3,-3 -2,0 -3,1 -3,3 0,2 1,3 3,3z"/>
   </g>
   <path class="fil6" d="M79 91c0,0 0,0 0,0 0,0 0,-1 1,-1 1,-2 3,-9 5,-17 1,0 -2,13 -3,16 1,0 3,0 4,0 4,0 7,1 7,2 0,1 -3,1 -7,1 -4,0 -7,0 -7,-1z"/>
   <path class="fil0" d="M95 63c-2,1 1,-4 10,-4 11,-1 14,5 10,3 -9,-3 -17,0 -20,1z"/>
   <path class="fil0" d="M77 63c1,1 -2,-4 -11,-4 -10,-1 -14,5 -9,3 9,-3 17,0 20,1z"/>
   <path class="fil7" d="M114 65c5,1 6,3 6,7 0,9 -3,14 -13,16 -8,1 -13,-3 -15,-12 0,-3 0,-6 3,-8 4,-3 14,-3 19,-3zm-57 0l0 0c-4,1 -6,3 -6,7 1,9 4,14 13,16 9,1 14,-3 16,-12 0,-3 0,-6 -3,-8 -5,-3 -14,-3 -20,-3zm25 4l0 0c0,-1 -1,-1 -1,-1 -1,-1 -1,-2 -2,-2 -4,-3 -17,-3 -21,-3 0,0 -5,0 -7,0 -1,0 -3,0 -4,1 -1,0 -1,0 -1,1 0,1 0,2 1,4 0,0 0,0 0,0 1,1 1,2 2,3 0,4 1,8 4,12 1,2 3,3 5,4 5,2 13,2 18,-1 2,-2 4,-6 5,-9 0,-2 1,-3 1,-5 0,0 0,-1 0,-1 0,0 1,-1 1,-1 2,1 3,1 6,0 0,0 0,1 0,1 0,0 0,1 0,1 1,2 1,3 2,5 1,3 3,7 5,9 5,3 13,3 18,1 2,-1 3,-2 5,-4 2,-4 3,-8 4,-12 0,-1 1,-2 2,-3 0,0 0,0 0,0 0,-2 0,-3 0,-4 0,-1 0,-1 0,-1 -2,-1 -3,-1 -5,-1 -2,0 -6,0 -6,0 -5,0 -17,0 -21,3 -1,0 -2,1 -2,2 -1,0 -1,0 -2,1 -2,0 -4,0 -7,0z"/>
   <path class="fil8" d="M99 98c-3,4 -8,6 -14,6 -6,0 -11,-2 -14,-6 3,2 8,5 14,5 5,0 11,-3 14,-5z"/>
  </g>
 </g>
</svg>
