<?xml version="1.0" encoding="UTF-8"?>
<!DOCTYPE svg PUBLIC "-//W3C//DTD SVG 1.1//EN" "http://www.w3.org/Graphics/SVG/1.1/DTD/svg11.dtd">
<!-- Creator: CorelDRAW X8 -->
<svg xmlns="http://www.w3.org/2000/svg" xml:space="preserve" width="170px" height="170px" version="1.1" style="shape-rendering:geometricPrecision; text-rendering:geometricPrecision; image-rendering:optimizeQuality; fill-rule:evenodd; clip-rule:evenodd"
viewBox="0 0 170 170"
 xmlns:xlink="http://www.w3.org/1999/xlink">
 <defs>
  <style type="text/css">
   <![CDATA[
    .fil6 {fill:#3D3B3A}
    .fil8 {fill:#3F2311}
    .fil0 {fill:#60381A}
    .fil3 {fill:#7C5D64}
    .fil9 {fill:#D6825B}
    .fil7 {fill:#E4B17C}
    .fil1 {fill:#EF9095}
    .fil2 {fill:#F4B57E}
    .fil4 {fill:#F6BF85}
    .fil5 {fill:#F7C897}
   ]]>
  </style>
 </defs>
 <g id="Capa_x0020_1">
  <metadata id="CorelCorpID_0Corel-Layer"/>
  <g id="_1904627769904">
   <path class="fil0" d="M53 38c-2,3 -7,15 -8,19 -2,3 -2,26 11,45 14,19 43,17 44,18 1,2 2,0 5,3 0,0 12,-12 16,-30 4,-19 -1,-32 -1,-32l-67 -23z"/>
   <path class="fil1" d="M100 119c-1,0 -3,3 -2,5 0,2 8,4 9,3 7,-6 -4,-9 -7,-8z"/>
   <path class="fil2" d="M102 149c1,-1 19,-15 19,-15 8,3 10,27 11,37l-20 0 -10 -22z"/>
   <path class="fil2" d="M85 119l-9 0 0 5c0,7 -17,7 -23,9 2,12 -2,17 30,36l2 0 3 0c15,-5 27,-12 30,-36 -6,-1 -25,-2 -24,-9l0 -5 -9 0z"/>
   <path class="fil2" d="M62 152c-1,0 -13,-18 -13,-18 -8,3 -10,27 -11,37l20 0 4 -19z"/>
   <path class="fil3" d="M53 133l0 0 0 0 0 0 -1 0 0 0 0 0 0 0 0 1 0 0 0 0 0 0 0 0 0 0 0 0 -1 0 0 0 0 0 0 0 0 0 0 0 0 0 0 0 0 0 0 0 0 0 -1 0 0 0 0 0 0 0 0 0 0 0 0 0 0 0 0 0 0 0 0 0 0 0 0 0 0 0 0 0 -1 0 0 0 0 0 0 0c0,0 0,0 0,0l0 0 0 0c0,0 0,0 0,0l0 0c0,1 0,1 0,1l0 0 0 0c0,0 0,0 0,0l0 0 0 0c0,0 0,0 0,0 0,2 1,8 3,16 -2,7 -6,13 -3,20l6 0 30 0 0 0 0 0 30 0 6 0c3,-7 -1,-13 -3,-20 2,-8 3,-14 3,-16 0,0 0,0 0,0l0 0 0 0c0,0 0,0 0,0l0 0 0 0c0,0 0,0 0,-1l0 0c0,0 0,0 0,0l0 0 0 0 0 0 0 0 0 0 0 0 -1 0 0 0 0 0 0 0 0 0 0 0 0 0 0 0 0 0 0 0 0 0 0 0 0 0 0 0 0 0 -1 0 0 0 0 0 0 0 0 0 0 0 0 0 0 0 0 0 0 0 0 0 -1 0 0 0 0 0 0 0 0 0 0 0 0 0 0 -1 0 0 0 0 0 0 -1 0 0 0 0 0 0 0c-4,14 -17,25 -32,25 -15,0 -28,-11 -32,-25z"/>
   <g>
    <path class="fil4" d="M59 76c2,6 -1,12 -6,13 -5,1 -10,-3 -12,-9 -1,-7 2,-13 7,-14 4,-1 10,3 11,10z"/>
    <path class="fil4" d="M112 76c-1,6 2,12 7,13 5,1 10,-3 11,-9 2,-7 -1,-13 -6,-14 -5,-1 -10,3 -12,10z"/>
   </g>
   <path class="fil5" d="M86 23l0 0c-3,0 -6,0 -6,0l0 0c0,0 0,0 0,0 -10,0 -20,6 -27,15 -6,8 -7,19 -6,29 1,27 16,57 39,57 23,0 37,-30 39,-57 0,-10 -1,-21 -7,-29 -6,-9 -16,-15 -26,-15 0,0 -1,0 -1,0l0 0c0,0 -3,0 -5,0l0 0z"/>
   <path class="fil0" d="M102 33c0,1 0,9 9,21 9,12 10,13 10,13 0,0 0,20 1,18 1,-2 3,-20 3,-20 0,0 2,-9 0,-18 -3,-10 -5,-13 -9,-15 -4,-1 -14,1 -14,1z"/>
   <path class="fil0" d="M52 58c-2,2 -7,2 -7,2 0,2 3,27 5,25l2 -27z"/>
   <path class="fil0" d="M121 67c0,-7 4,-22 2,-26 -5,-13 -14,-18 -30,-19 -4,-1 -8,0 -8,0 9,14 16,33 36,45z"/>
   <path class="fil0" d="M106 37c-3,19 -44,13 -57,36 -15,-23 8,-69 47,-51l10 15z"/>
   <g>
    <path class="fil6" d="M70 84c1,0 3,-1 3,-3 0,-2 -2,-3 -3,-3 -2,0 -3,1 -3,3 0,2 1,3 3,3z"/>
    <path class="fil6" d="M104 84c1,0 3,-1 3,-3 0,-2 -2,-3 -3,-3 -2,0 -3,1 -3,3 0,2 1,3 3,3z"/>
   </g>
   <path class="fil7" d="M81 96c0,0 0,0 0,0 0,0 0,0 0,0 1,-3 4,-10 5,-17 1,0 -1,13 -2,16 1,0 2,0 3,0 4,0 7,0 7,1 0,1 -3,2 -7,2 -3,0 -6,-1 -6,-2z"/>
   <g>
    <path class="fil8" d="M94 74c-2,0 1,-5 10,-5 10,0 13,5 9,4 -9,-3 -16,-1 -19,1z"/>
    <path class="fil8" d="M80 74c1,0 -2,-5 -10,-5 -11,0 -14,5 -10,4 9,-3 17,-1 20,1z"/>
   </g>
   <path class="fil9" d="M97 105c-2,6 -20,6 -22,0 6,4 16,4 22,0z"/>
   <path class="fil0" d="M91 137c-5,12 -1,15 -1,15l0 -6c0,0 2,8 2,13 0,6 -2,12 -2,12 0,0 8,-4 13,-11 4,-7 2,-21 2,-21 0,0 2,5 2,4 0,0 1,-6 0,-11 0,-2 1,-5 -1,-7 -7,-10 -14,8 -15,12z"/>
  </g>
 </g>
</svg>
