<?xml version="1.0" encoding="UTF-8"?>
<!DOCTYPE svg PUBLIC "-//W3C//DTD SVG 1.1//EN" "http://www.w3.org/Graphics/SVG/1.1/DTD/svg11.dtd">
<!-- Creator: CorelDRAW X8 -->
<svg xmlns="http://www.w3.org/2000/svg" xml:space="preserve" width="170px" height="170px" version="1.1" style="shape-rendering:geometricPrecision; text-rendering:geometricPrecision; image-rendering:optimizeQuality; fill-rule:evenodd; clip-rule:evenodd"
viewBox="0 0 170 170"
 xmlns:xlink="http://www.w3.org/1999/xlink">
 <defs>
  <style type="text/css">
   <![CDATA[
    .str0 {stroke:#231815;stroke-width:0.755905}
    .fil6 {fill:#3D3B3A}
    .fil0 {fill:#953D23}
    .fil5 {fill:#CC5726}
    .fil1 {fill:#CDACCA}
    .fil7 {fill:#D6825B}
    .fil3 {fill:#D8B3D1}
    .fil8 {fill:#E4B17C}
    .fil2 {fill:#F6BF85}
    .fil4 {fill:#F7C897}
   ]]>
  </style>
 </defs>
 <g id="Capa_x0020_1">
  <metadata id="CorelCorpID_0Corel-Layer"/>
  <g id="_1904555905648">
   <path class="fil0 str0" d="M124 94c-1,4 -15,35 -15,35l-36 0c0,0 -22,-16 -24,-28 -1,-12 0,-24 0,-24l74 -1 1 18z"/>
   <path class="fil1" d="M109 154c0,-1 11,-22 11,-22 8,3 10,25 11,36l-19 0 -3 -14z"/>
   <path class="fil2" d="M86 117l-9 0 0 6c0,6 -16,6 -22,8 2,13 14,23 32,35l2 0 2 0c7,-11 25,-17 26,-35 -6,-2 -23,-2 -23,-8l0 -6 -8 0z"/>
   <path class="fil1" d="M64 151c-1,0 -12,-19 -12,-19 -8,3 -11,25 -11,36l19 0 4 -17z"/>
   <path class="fil3" d="M55 131c-2,1 -4,1 -4,2 9,17 -4,24 1,35l34 0 0 0 0 0 34 0c5,-11 -8,-18 1,-35 -1,-1 -2,-1 -4,-2 -2,12 -15,20 -31,20 -16,0 -29,-8 -31,-20z"/>
   <path class="fil4" d="M87 25l0 0c-3,0 -5,0 -5,0l0 0c-1,0 -1,0 -1,0 -10,1 -19,6 -25,14 -6,9 -7,19 -7,29 1,25 16,54 38,54 22,0 36,-29 37,-54 0,-10 0,-20 -6,-29 -6,-8 -16,-13 -26,-14 0,0 0,0 0,0l0 0c0,0 -3,0 -5,0l0 0z"/>
   <path class="fil5" d="M113 72c1,1 -1,-4 -10,-4 -10,-1 -13,4 -9,3 9,-3 16,0 19,1z"/>
   <path class="fil6" d="M70 81c2,0 3,-1 3,-3 0,-2 -1,-3 -3,-3 -1,0 -3,1 -3,3 0,2 2,3 3,3z"/>
   <path class="fil6" d="M103 81c2,0 3,-1 3,-3 0,-2 -1,-3 -3,-3 -2,0 -3,1 -3,3 0,2 1,3 3,3z"/>
   <path class="fil7" d="M75 102c7,3 15,3 23,0 -2,11 -21,11 -23,0z"/>
   <path class="fil8" d="M80 95c0,0 0,0 0,0 0,0 0,0 0,0 1,-2 4,-9 5,-16 1,0 -1,12 -2,15 1,0 2,0 3,0 4,0 7,0 7,1 0,1 -3,2 -7,2 -3,0 -6,-1 -6,-2z"/>
   <path class="fil5" d="M60 72c-2,1 1,-4 10,-4 9,0 12,4 9,3 -9,-3 -16,0 -19,1z"/>
   <path class="fil5" d="M60 34c14,8 55,22 54,62 0,0 3,-16 3,-15 0,1 2,10 -1,25 -3,15 -15,32 -15,31 1,0 14,-7 21,-24 22,-50 4,-103 -47,-93 -11,3 -20,11 -15,14z"/>
   <path class="fil5" d="M75 39c-28,15 -17,68 -6,85 6,9 12,14 10,12 -2,-1 -17,0 -32,-29 -12,-23 -16,-80 22,-80l6 12z"/>
   <path class="fil5" d="M48 56c2,-2 10,-11 10,-11 -8,31 6,58 6,58 -12,-20 -13,-25 -16,-47z"/>
  </g>
 </g>
</svg>
