<?xml version="1.0" encoding="UTF-8"?>
<!DOCTYPE svg PUBLIC "-//W3C//DTD SVG 1.1//EN" "http://www.w3.org/Graphics/SVG/1.1/DTD/svg11.dtd">
<!-- Creator: CorelDRAW X8 -->
<svg xmlns="http://www.w3.org/2000/svg" xml:space="preserve" width="170px" height="170px" version="1.1" style="shape-rendering:geometricPrecision; text-rendering:geometricPrecision; image-rendering:optimizeQuality; fill-rule:evenodd; clip-rule:evenodd"
viewBox="0 0 170 170"
 xmlns:xlink="http://www.w3.org/1999/xlink">
 <defs>
  <style type="text/css">
   <![CDATA[
    .fil6 {fill:#3D3B3A}
    .fil0 {fill:#D33F26}
    .fil7 {fill:#D6825B}
    .fil2 {fill:#E43F24}
    .fil8 {fill:#E4B17C}
    .fil5 {fill:#ED7E21}
    .fil1 {fill:#F4B57E}
    .fil3 {fill:#F6BF85}
    .fil4 {fill:#F7C897}
   ]]>
  </style>
 </defs>
 <g id="Capa_x0020_1">
  <metadata id="CorelCorpID_0Corel-Layer"/>
  <g id="_1904555929520">
   <path class="fil0" d="M70 148c-1,-1 -18,-9 -18,-9 -8,3 -10,20 -10,30l18 0 10 -21z"/>
   <path class="fil0" d="M101 148c1,-1 18,-9 18,-9 8,3 10,20 11,30l-19 0 -10 -21z"/>
   <path class="fil1" d="M86 120l-9 0 0 5c0,3 0,3 -3,4 0,0 -12,10 -13,10 4,12 12,14 19,25l5 1 6 0c7,-11 17,-11 21,-23 -1,0 -15,-13 -15,-13 -3,-1 -3,-1 -3,-4l0 -5 -8 0z"/>
   <path class="fil2" d="M74 129c-4,2 -20,8 -22,10 1,3 3,16 5,30l29 0 28 0c2,-14 4,-27 5,-30 -1,-2 -17,-8 -22,-10 3,12 0,24 -11,24 -12,0 -14,-13 -12,-24z"/>
   <path class="fil3" d="M108 82c-2,7 2,12 8,13 6,1 12,-3 13,-9 2,-6 -2,-12 -8,-13 -6,-1 -12,3 -13,9z"/>
   <path class="fil3" d="M65 82c1,7 -2,12 -9,13 -6,1 -11,-3 -13,-9 -1,-6 3,-12 9,-13 6,-1 12,3 13,9z"/>
   <path class="fil4" d="M117 44c-6,-8 -16,-14 -25,-14 0,0 0,0 -1,0l0 0c0,0 -2,0 -5,0 -2,0 -4,0 -4,0l0 0c-1,0 -1,0 -1,0 -10,0 -19,6 -25,14 -6,8 -6,18 -6,28 1,24 3,52 36,53 34,0 36,-29 37,-53 0,-10 -1,-20 -6,-28z"/>
   <path class="fil5" d="M52 79c0,-9 0,-26 8,-26 6,0 17,4 26,4 9,0 21,-4 27,-4 6,0 8,8 8,20 0,3 0,5 0,8 0,1 0,3 0,4 0,1 1,2 1,2 1,0 1,-3 1,-4 1,-5 1,-10 1,-14 0,-7 0,-17 -6,-27 -2,-3 -3,-7 -7,-10 -10,-7 -30,-7 -42,-3 -8,2 -15,9 -18,17 -3,8 -3,15 -2,32 0,2 1,4 1,6 0,1 0,2 0,3 1,3 2,1 2,-1 0,-2 0,-4 0,-7z"/>
   <path class="fil5" d="M49 74c-1,-11 -3,-41 5,-46 4,-2 23,-3 33,-3l0 0c9,0 28,1 32,3 8,5 6,35 5,46 0,0 -5,-18 -10,-25 -5,-8 -24,-4 -27,-3 0,0 0,0 0,0l0 0 0 0c-1,0 -1,0 -1,0 -3,-1 -22,-5 -27,3 -5,7 -10,25 -10,25z"/>
   <g>
    <path class="fil6" d="M68 85c1,0 3,-1 3,-3 0,-1 -2,-2 -3,-2 -2,0 -3,1 -3,2 0,2 1,3 3,3z"/>
    <path class="fil6" d="M105 85c1,0 3,-1 3,-3 0,-1 -2,-2 -3,-2 -2,0 -3,1 -3,2 0,2 1,3 3,3z"/>
   </g>
   <path class="fil7" d="M74 102c4,3 9,5 13,5 5,0 9,-2 14,-5 3,15 -31,15 -27,0z"/>
   <path class="fil8" d="M80 99c0,0 0,0 0,0 0,0 0,0 0,0 2,-2 4,-9 5,-16 1,0 -1,12 -2,15 1,0 2,0 3,0 4,0 6,0 6,1 0,1 -2,2 -6,2 -3,0 -6,-1 -6,-2z"/>
   <path class="fil5" d="M59 74c-1,-2 4,-3 9,-3 9,0 13,5 9,4 -3,0 -17,-1 -18,-1z"/>
   <path class="fil5" d="M114 74c1,-2 -4,-3 -9,-3 -8,0 -13,4 -9,4 3,0 18,-1 18,-1z"/>
  </g>
 </g>
</svg>
