<?xml version="1.0" encoding="UTF-8"?>
<!DOCTYPE svg PUBLIC "-//W3C//DTD SVG 1.1//EN" "http://www.w3.org/Graphics/SVG/1.1/DTD/svg11.dtd">
<!-- Creator: CorelDRAW X8 -->
<svg xmlns="http://www.w3.org/2000/svg" xml:space="preserve" width="170px" height="170px" version="1.1" style="shape-rendering:geometricPrecision; text-rendering:geometricPrecision; image-rendering:optimizeQuality; fill-rule:evenodd; clip-rule:evenodd"
viewBox="0 0 170 170"
 xmlns:xlink="http://www.w3.org/1999/xlink">
 <defs>
  <style type="text/css">
   <![CDATA[
    .fil6 {fill:#3D3B3A}
    .fil8 {fill:#903D21}
    .fil0 {fill:#B14D26}
    .fil5 {fill:#CC5726}
    .fil9 {fill:#D6825B}
    .fil2 {fill:#D8465D}
    .fil7 {fill:#E4B17C}
    .fil3 {fill:#E8546B}
    .fil1 {fill:#F4B57E}
    .fil4 {fill:#F7C897}
    .fil10 {fill:white}
   ]]>
  </style>
 </defs>
 <g id="Capa_x0020_1">
  <metadata id="CorelCorpID_0Corel-Layer"/>
  <g id="_1869457864064">
   <path class="fil0" d="M121 110c-1,0 -8,8 -8,8 0,0 -9,-6 -28,-6 -19,0 -27,6 -27,6 0,0 -6,-4 -8,-12 -2,-7 -4,-29 -3,-29 1,0 79,-1 79,-1l-5 34z"/>
   <path class="fil1" d="M102 146c1,-1 20,-15 20,-15 8,3 11,27 12,39l-21 0 -11 -24z"/>
   <path class="fil2" d="M111 139l11 -8c7,2 10,22 11,34l-22 0 0 -26z"/>
   <path class="fil1" d="M85 115l-9 0 0 6c0,3 -1,3 -4,4 0,0 -3,3 -4,3 4,13 7,30 14,42l3 0 2 0c8,-12 11,-29 15,-42 -1,0 -4,-3 -4,-3 -4,-1 -4,-1 -4,-4l0 -6 -9 0z"/>
   <path class="fil1" d="M68 146c-1,-1 -20,-15 -20,-15 -8,3 -11,27 -12,39l21 0 11 -24z"/>
   <path class="fil2" d="M59 139l-11 -8c-7,3 -10,22 -11,34l22 0 0 -26z"/>
   <path class="fil3" d="M79 138c-8,-3 -9,-11 -7,-13 -4,2 -14,4 -20,5l0 0 -1 0 0 0 0 0 0 0 0 0 0 0 0 0 0 0 0 0 0 0 -1 0 0 0 0 0 0 0 0 0 0 0 0 1 0 0 0 0 0 0 0 0 -1 0 0 0 0 0 0 0 0 0 0 0 0 0 0 0 0 0 0 0 0 0 0 0 0 0 0 0 -1 0 0 0 0 0 0 0 0 0 0 0 0 0c0,0 0,0 0,0l0 0 0 0c0,0 0,0 0,0l0 0c0,0 0,0 0,0l0 0 0 0c-1,0 -1,0 -1,0l0 0 0 0c0,0 0,1 0,1 1,1 2,8 4,16 -2,8 -6,14 -3,22l6 0 31 0 0 0 0 0 31 0 6 0c3,-8 -1,-14 -3,-22 2,-8 3,-15 4,-16 0,0 0,-1 0,-1l0 0 0 0c0,0 0,0 -1,0l0 0 0 0c0,0 0,0 0,0l0 0c0,0 0,0 0,0l0 0 0 0 0 0 0 0 0 0 0 0 0 0 0 0 0 0 -1 0 0 0 0 0 0 0 0 0 0 0 0 0 0 0 0 0 0 0 0 0 0 0 0 0 0 0 -1 0 0 0 0 0 0 0 0 0 0 -1 0 0 0 0 0 0 0 0 0 0 -1 0 0 0 0 0 0 0 0 0 0 0 0 0 0 0 0 0 0 0 -1 0 0 0c-6,-1 -16,-3 -20,-5 2,2 1,10 -7,13l0 0 -4 11 -2 10 -6 -21 0 0z"/>
   <path class="fil4" d="M86 16l0 0c-3,0 -6,-1 -6,-1l0 1c0,0 0,0 0,0 -11,0 -21,6 -28,15 -6,9 -7,20 -7,31 2,27 17,58 41,58 23,0 39,-31 40,-58 1,-11 0,-22 -7,-31 -6,-9 -16,-15 -27,-15 0,0 0,0 -1,0l0 -1c0,0 -2,1 -5,1l0 0z"/>
   <path class="fil5" d="M104 26c0,2 0,10 9,22 10,13 10,14 10,14 0,0 -1,19 0,18 0,-1 5,-19 5,-19 0,0 2,-11 0,-20 -3,-10 -6,-14 -10,-15 -4,-2 -14,0 -14,0z"/>
   <path class="fil5" d="M47 54c-1,2 -5,6 -5,6l4 19 1 -25z"/>
   <path class="fil5" d="M123 69c0,-7 5,-30 3,-34 -8,-21 -42,-32 -50,-12 -3,7 17,0 19,9 2,11 15,29 28,37z"/>
   <path class="fil5" d="M106 29c9,8 -19,27 -56,36 -19,-18 6,-68 47,-50l9 14z"/>
   <path class="fil5" d="M43 48c-3,16 -6,68 16,72 -9,-12 -9,-37 -9,-58 0,-14 -1,-22 -1,-33 -3,4 -6,14 -6,19z"/>
   <path class="fil5" d="M127 48c3,16 6,68 -16,72 14,-20 10,-64 10,-91 3,4 6,14 6,19z"/>
   <g>
    <path class="fil6" d="M69 80c2,0 3,-2 3,-3 0,-2 -1,-4 -3,-4 -2,0 -3,2 -3,4 0,1 1,3 3,3z"/>
    <path class="fil6" d="M102 80c2,0 4,-2 4,-3 0,-2 -2,-4 -4,-4 -1,0 -3,2 -3,4 0,1 2,3 3,3z"/>
   </g>
   <path class="fil7" d="M80 93c0,0 0,-1 0,-1 0,0 0,0 0,0 1,-2 4,-10 5,-18 1,0 -1,14 -2,17 1,0 2,0 4,0 3,0 6,1 6,1 0,1 -3,2 -6,2 -4,0 -7,-1 -7,-1z"/>
   <g>
    <path class="fil8" d="M93 69c-2,1 1,-4 10,-4 11,-1 14,5 10,3 -9,-3 -17,0 -20,1z"/>
    <path class="fil8" d="M78 69c2,1 -1,-4 -10,-4 -11,-1 -14,5 -10,3 9,-3 17,0 20,1z"/>
   </g>
   <path class="fil9" d="M75 100c4,2 18,2 22,0 2,11 -24,11 -22,0z"/>
   <path class="fil10" d="M71 125l3 -1 5 14c0,0 -5,5 -10,5 -4,1 -5,-9 -3,-13 2,-4 5,-5 5,-5z"/>
   <path class="fil10" d="M99 125l-3 -1 -5 14c0,0 5,5 10,5 4,1 5,-9 3,-13 -2,-4 -5,-5 -5,-5z"/>
   <path class="fil5" d="M84 39c2,0 15,1 15,1 0,0 -3,7 -15,15 -13,8 -27,11 -26,10 0,0 11,-4 17,-10 6,-5 8,-9 8,-9l1 -7z"/>
   <path class="fil5" d="M103 28c-2,-1 -14,-6 -14,-6 0,0 0,7 6,20 7,13 17,23 17,22 0,0 -7,-10 -10,-17 -2,-7 -2,-13 -2,-13l3 -6z"/>
  </g>
 </g>
</svg>
