<?xml version="1.0" encoding="UTF-8"?>
<!DOCTYPE svg PUBLIC "-//W3C//DTD SVG 1.1//EN" "http://www.w3.org/Graphics/SVG/1.1/DTD/svg11.dtd">
<!-- Creator: CorelDRAW X8 -->
<svg xmlns="http://www.w3.org/2000/svg" xml:space="preserve" width="170px" height="170px" version="1.1" style="shape-rendering:geometricPrecision; text-rendering:geometricPrecision; image-rendering:optimizeQuality; fill-rule:evenodd; clip-rule:evenodd"
viewBox="0 0 170 170"
 xmlns:xlink="http://www.w3.org/1999/xlink">
 <defs>
  <style type="text/css">
   <![CDATA[
    .fil0 {fill:#34333B}
    .fil6 {fill:#3D3B3A}
    .fil5 {fill:#973823}
    .fil2 {fill:#BDD43B}
    .fil7 {fill:#D6825B}
    .fil9 {fill:#D89E67}
    .fil8 {fill:#E4B17C}
    .fil1 {fill:#F4B57E}
    .fil3 {fill:#F6BF85}
    .fil4 {fill:#F7C897}
   ]]>
  </style>
 </defs>
 <g id="Capa_x0020_1">
  <metadata id="CorelCorpID_0Corel-Layer"/>
  <g id="_1904556499952">
   <path class="fil0" d="M68 148c0,-1 -19,-10 -19,-10 -9,3 -10,22 -11,33l20 0 10 -23z"/>
   <path class="fil0" d="M102 148c0,-1 19,-10 19,-10 9,3 10,22 11,33l-20 0 -10 -23z"/>
   <path class="fil1" d="M85 118l-9 0 0 5c0,4 0,3 -4,5 0,0 -3,2 -4,3 4,12 8,24 16,35l2 0 3 0c7,-11 9,-23 13,-35 -1,-1 -4,-3 -4,-3 -4,-2 -4,-1 -4,-5l0 -5 -9 0z"/>
   <path class="fil2" d="M85 148c-15,-1 -12,-20 -13,-20 -4,2 -21,9 -23,10 1,4 4,18 6,33l30 0 30 0c2,-15 5,-29 6,-33 -2,-1 -19,-8 -23,-10 -1,0 2,19 -13,20z"/>
   <path class="fil3" d="M109 78c-2,8 3,13 9,15 7,1 13,-3 14,-10 1,-7 -3,-14 -9,-15 -7,-2 -13,3 -14,10z"/>
   <path class="fil3" d="M63 78c1,8 -3,13 -9,15 -7,1 -13,-3 -14,-10 -2,-7 3,-14 9,-15 7,-2 13,3 14,10z"/>
   <path class="fil4" d="M118 36c-6,-9 -16,-15 -26,-15 0,0 -1,0 -1,0l0 0c0,0 -3,0 -5,0 -3,0 -5,0 -5,0l0 0c-1,0 -1,0 -1,0 -10,0 -20,6 -27,15 -6,8 -7,19 -6,30 0,7 1,20 2,28 10,38 64,38 74,0 0,-8 2,-21 2,-28 1,-11 0,-22 -7,-30z"/>
   <path class="fil5" d="M54 50c-1,1 2,-10 8,-10 7,0 48,2 50,0 7,9 12,44 13,43 1,0 1,-3 1,-4 1,-5 1,-10 1,-16 0,-9 3,-28 -15,-39 -11,-7 -33,-8 -45,-4 -8,3 -17,10 -20,19 -3,9 -3,16 -2,35 0,2 0,4 1,6 0,1 0,2 0,4 2,7 2,-26 8,-34z"/>
   <path class="fil6" d="M66 84c2,0 3,-1 3,-3 0,-2 -1,-3 -3,-3 -2,0 -3,1 -3,3 0,2 1,3 3,3z"/>
   <path class="fil6" d="M106 84c1,0 3,-1 3,-3 0,-1 -2,-3 -3,-3 -2,0 -3,2 -3,3 0,2 1,3 3,3z"/>
   <path class="fil5" d="M55 73c-1,-2 5,-3 10,-4 9,0 14,4 10,4 -4,0 -19,0 -20,0z"/>
   <path class="fil5" d="M114 73c2,-2 -4,-3 -9,-4 -9,-1 -14,3 -10,3 3,1 19,1 19,1z"/>
   <path class="fil7" d="M96 103c-2,10 -19,10 -21,0 5,1 15,1 21,0z"/>
   <path class="fil8" d="M79 97c0,0 0,0 0,0 0,-1 0,-1 0,-1 2,-2 4,-9 5,-17 1,0 -1,13 -2,16 1,0 2,0 4,0 3,0 6,1 6,2 0,0 -3,1 -6,1 -4,0 -7,-1 -7,-1z"/>
   <path class="fil5" d="M53 45c0,-4 -4,-5 -3,-10 0,-4 8,-14 12,-18 4,-3 8,-5 8,-5 0,0 -2,5 -1,4 1,-2 6,-4 9,-6 2,-1 3,-3 3,-2 -1,1 -2,4 -1,3 1,-1 4,-1 7,-4 4,-4 6,-8 6,-7 -1,0 5,7 6,10 2,3 2,5 3,4 0,-1 2,-4 2,-4 0,0 6,5 9,9 2,3 3,6 3,5 0,-1 1,-3 1,-3 0,0 3,8 2,12 -1,5 -3,10 -3,10 0,0 -22,6 -31,6 -3,0 -28,-7 -29,-9l-3 5z"/>
   <path class="fil9" d="M85 148c-15,-1 -12,-20 -13,-20 0,0 0,0 0,0 -1,0 -2,1 -4,1 0,1 0,1 0,1 0,1 0,1 0,1 0,6 3,12 6,16 3,4 7,6 11,6 5,0 10,-4 13,-10 2,-3 3,-6 3,-10 0,-1 0,-2 0,-3 0,0 0,0 0,0 0,0 0,0 0,-1 -1,0 -2,-1 -3,-1 0,0 0,0 0,0 -1,0 2,19 -13,20z"/>
   <path class="fil0" d="M85 148c-15,-1 -12,-20 -13,-20 0,0 0,0 0,0 -1,0 -2,1 -4,1 0,1 0,1 0,1 0,1 0,1 0,1 0,6 3,12 6,16 3,4 7,6 11,6 5,0 10,-4 13,-10 2,-3 3,-6 3,-10 0,-1 0,-2 0,-3 0,0 0,0 0,0l0 -1c-1,0 -2,-1 -3,-1 0,0 0,0 0,0 -1,0 2,19 -13,20z"/>
  </g>
 </g>
</svg>
