<?xml version="1.0" encoding="UTF-8"?>
<!DOCTYPE svg PUBLIC "-//W3C//DTD SVG 1.1//EN" "http://www.w3.org/Graphics/SVG/1.1/DTD/svg11.dtd">
<!-- Creator: CorelDRAW X8 -->
<svg xmlns="http://www.w3.org/2000/svg" xml:space="preserve" width="170px" height="170px" version="1.1" style="shape-rendering:geometricPrecision; text-rendering:geometricPrecision; image-rendering:optimizeQuality; fill-rule:evenodd; clip-rule:evenodd"
viewBox="0 0 170 170"
 xmlns:xlink="http://www.w3.org/1999/xlink">
 <defs>
  <style type="text/css">
   <![CDATA[
    .fil4 {fill:#0079B3}
    .fil3 {fill:#008ACF}
    .fil1 {fill:#0095D3}
    .fil0 {fill:#1A8EC1}
    .fil5 {fill:#2AA5DD}
    .fil9 {fill:#3D3B3A}
    .fil8 {fill:#BF9041}
    .fil10 {fill:#D6825B}
    .fil11 {fill:#E4B17C}
    .fil2 {fill:#F4B57E}
    .fil6 {fill:#F6BF85}
    .fil7 {fill:#F7C897}
   ]]>
  </style>
 </defs>
 <g id="Capa_x0020_1">
  <metadata id="CorelCorpID_0Corel-Layer"/>
  <g id="_1904555582736">
   <polygon class="fil0" points="74,129 73,121 99,121 98,129 "/>
   <path class="fil1" d="M69 146c-1,-1 -19,-9 -19,-9 -8,2 -10,20 -10,31l19 0 10 -22z"/>
   <path class="fil1" d="M101 146c1,-1 19,-9 19,-9 8,2 10,20 10,31l-19 0 -10 -22z"/>
   <path class="fil2" d="M85 117l-8 0 0 5c0,4 -1,3 -4,5 0,0 -3,2 -4,2 4,13 7,25 14,36l2 0 2 0c8,-11 10,-23 14,-36 -1,0 -4,-2 -4,-2 -3,-2 -4,-1 -4,-5l0 -5 -8 0z"/>
   <path class="fil3" d="M86 146c0,0 -3,-3 -4,-5 -4,-6 -9,-14 -9,-14 -5,2 -21,8 -23,10 2,3 4,17 6,31l29 0 29 0c2,-14 4,-28 6,-31 -2,-2 -18,-8 -23,-10 0,0 -3,8 -7,14 -2,2 -4,5 -4,5z"/>
   <path class="fil4" d="M77 134c1,0 3,0 3,0l2 7 -6 -3 1 -4z"/>
   <path class="fil5" d="M73 121l7 13c0,0 -7,7 -7,7 0,0 -3,-12 -3,-13 1,-1 3,-7 3,-7z"/>
   <path class="fil4" d="M95 134c-1,0 -3,0 -3,0l-2 7 6 -3 -1 -4z"/>
   <path class="fil5" d="M99 121l-7 13c0,0 7,7 7,7 0,0 3,-12 3,-13 -1,-1 -3,-7 -3,-7z"/>
   <path class="fil6" d="M107 78c-1,6 3,12 9,13 6,1 12,-2 13,-9 2,-6 -2,-12 -9,-13 -6,-1 -12,3 -13,9z"/>
   <path class="fil6" d="M63 78c1,6 -3,12 -9,13 -6,1 -12,-2 -13,-9 -2,-6 3,-12 9,-13 6,-1 12,3 13,9z"/>
   <path class="fil7" d="M116 38c-6,-8 -15,-14 -26,-14 0,0 0,0 0,0l0 0c0,0 -2,0 -5,0 -3,0 -5,0 -5,0l0 0c0,0 0,0 0,0 -11,0 -20,6 -26,14 -6,8 -7,19 -7,29 2,26 4,54 38,55 34,0 36,-30 38,-55 0,-10 -1,-21 -7,-29z"/>
   <path class="fil8" d="M51 75c1,-9 1,-26 9,-26 0,0 25,-11 54,-11 7,0 8,19 8,31 0,11 -2,16 -1,16 1,1 5,-6 5,-21 0,-6 0,-17 -6,-27 -2,-3 -4,-7 -8,-10 -10,-7 -32,-6 -43,-2 -33,11 -21,60 -20,60 1,0 2,-9 2,-10z"/>
   <path class="fil8" d="M89 33c4,0 24,5 24,5 -15,14 -39,24 -60,20 0,0 10,-6 9,-5 -1,1 -9,2 -11,2 -3,0 -3,-1 -3,-1 16,-15 16,-15 41,-21z"/>
   <path class="fil9" d="M81 71c-1,0 -2,-1 -3,-2 -7,-2 -26,-1 -31,0 -1,0 -1,0 -1,1 0,0 0,3 0,3 1,1 2,1 2,2 2,2 2,11 6,15 4,4 18,4 22,-1 3,-4 4,-8 6,-12 1,-1 1,-1 2,-1 0,0 1,0 1,0 0,0 1,0 1,0 1,0 1,0 2,1 2,4 3,8 6,12 4,5 18,5 22,1 4,-4 4,-13 6,-15 0,-1 1,-1 2,-2 0,0 0,-3 0,-3 0,-1 0,-1 -1,-1 -5,-1 -24,-2 -31,0 -1,1 -2,2 -3,2 0,1 -1,1 -4,1 -3,0 -4,0 -4,-1zm35 0l0 0c0,0 2,0 3,2 0,1 0,6 0,8 -1,2 -2,5 -3,7 -4,5 -18,4 -21,0 -3,-3 -7,-13 -2,-16 5,-3 18,-3 23,-1zm-62 0l0 0c5,-2 18,-2 23,1 5,3 1,13 -2,16 -3,4 -17,5 -21,0 -1,-2 -2,-5 -3,-7 0,-2 0,-7 0,-8 1,-2 3,-2 3,-2z"/>
   <g>
    <path class="fil9" d="M66 83c2,0 3,-1 3,-3 0,-1 -1,-3 -3,-3 -2,0 -3,2 -3,3 0,2 1,3 3,3z"/>
    <path class="fil9" d="M104 83c2,0 3,-1 3,-3 0,-1 -1,-3 -3,-3 -2,0 -3,2 -3,3 0,2 1,3 3,3z"/>
   </g>
   <path class="fil10" d="M99 102c-3,3 -8,5 -13,5 -6,0 -11,-2 -13,-5 3,2 7,4 13,4 5,0 10,-2 13,-4z"/>
   <path class="fil11" d="M79 98c0,0 0,0 0,0 0,0 0,-1 0,-1 2,-2 4,-9 5,-16 1,0 -1,12 -2,15 1,0 2,0 3,0 4,0 7,1 7,2 0,1 -3,1 -7,1 -3,0 -6,0 -6,-1z"/>
   <path class="fil8" d="M56 65c-1,-1 4,-2 9,-2 8,0 13,4 9,4 -3,0 -18,-1 -18,-2z"/>
   <path class="fil8" d="M114 65c1,-1 -4,-2 -9,-2 -9,0 -13,4 -9,4 3,0 18,-1 18,-2z"/>
  </g>
 </g>
</svg>
