<?xml version="1.0" encoding="UTF-8"?>
<!DOCTYPE svg PUBLIC "-//W3C//DTD SVG 1.1//EN" "http://www.w3.org/Graphics/SVG/1.1/DTD/svg11.dtd">
<!-- Creator: CorelDRAW X8 -->
<svg xmlns="http://www.w3.org/2000/svg" xml:space="preserve" width="170px" height="170px" version="1.1" style="shape-rendering:geometricPrecision; text-rendering:geometricPrecision; image-rendering:optimizeQuality; fill-rule:evenodd; clip-rule:evenodd"
viewBox="0 0 170 170"
 xmlns:xlink="http://www.w3.org/1999/xlink">
 <defs>
  <style type="text/css">
   <![CDATA[
    .fil7 {fill:#3D3B3A}
    .fil0 {fill:#491D11}
    .fil8 {fill:#D6825B}
    .fil1 {fill:#DF2D26}
    .fil3 {fill:#E43824}
    .fil9 {fill:#E4B17C}
    .fil6 {fill:#EFEFEF}
    .fil2 {fill:#F4B57E}
    .fil4 {fill:#F6BF85}
    .fil5 {fill:#F7C897}
   ]]>
  </style>
 </defs>
 <g id="Capa_x0020_1">
  <metadata id="CorelCorpID_0Corel-Layer"/>
  <g id="_1904551902720">
   <path class="fil0" d="M48 72c0,2 4,20 3,33 -2,13 -5,25 -5,25 29,6 47,3 74,-2 0,0 2,-8 -1,-24 -4,-16 4,-34 4,-34l-75 2z"/>
   <path class="fil0" d="M102 29c55,-10 3,75 32,97 4,3 -19,17 -27,3 -6,-9 12,-25 13,-48 1,-23 -7,-31 -12,-39 -5,-9 -6,-13 -6,-13z"/>
   <path class="fil0" d="M110 32c1,13 -2,14 -13,21 -10,7 -15,7 -13,6 2,0 10,-14 10,-14 0,0 -11,8 -22,13 -11,4 -15,2 -15,2 0,0 10,-12 8,-11 -1,1 -10,7 -11,10 -2,2 -4,15 -3,29 2,14 16,40 8,46 -11,7 -25,-6 -23,-7 17,-4 8,-72 9,-76 1,-10 7,-17 13,-22 14,-11 50,-11 52,3z"/>
   <path class="fil1" d="M101 147c1,-1 19,-14 19,-14 8,2 11,25 11,36l-19 0 -11 -22z"/>
   <path class="fil2" d="M85 117l-9 0 0 6c0,3 -1,2 -4,4 0,0 -3,3 -4,3 4,12 7,28 14,39l3 0 2 0c7,-11 10,-27 14,-39 -1,0 -4,-3 -4,-3 -3,-2 -4,-1 -4,-4l0 -6 -8 0z"/>
   <path class="fil1" d="M68 147c0,-1 -18,-14 -18,-14 -8,2 -11,25 -12,36l20 0 10 -22z"/>
   <path class="fil3" d="M72 127c-4,2 -20,4 -22,6 2,3 11,19 5,36l30 0 0 0 0 0 30 0c-3,-18 4,-33 6,-36 -2,-2 -19,-3 -24,-6 6,5 -4,18 -12,19 -9,-1 -18,-15 -13,-19z"/>
   <g>
    <path class="fil4" d="M59 75c2,6 -1,12 -6,13 -5,1 -10,-3 -11,-9 -2,-6 1,-13 6,-14 5,-1 10,3 11,10z"/>
    <path class="fil4" d="M112 75c-2,6 1,12 6,13 5,1 10,-3 11,-9 2,-6 -1,-13 -6,-14 -5,-1 -10,3 -11,10z"/>
   </g>
   <path class="fil5" d="M86 23l0 0c-3,0 -6,-1 -6,-1l0 1c0,0 0,0 0,0 -10,0 -20,6 -26,14 -6,9 -7,19 -7,29 1,27 16,56 39,56 22,0 37,-29 38,-56 1,-10 0,-20 -7,-29 -6,-8 -15,-14 -26,-14 0,0 0,0 0,0l0 -1c0,0 -3,1 -5,1l0 0z"/>
   <path class="fil0" d="M67 25c1,-1 15,-3 16,-3 8,-1 19,1 24,3 5,3 12,10 13,13 1,3 0,3 -12,12 -13,8 -32,13 -27,11 5,-2 9,-10 9,-10 0,0 -4,4 -20,10 -17,6 -22,4 -22,4 0,0 -5,-8 -2,-17 3,-10 5,-11 11,-16 5,-6 10,-7 10,-7z"/>
   <path class="fil0" d="M102 33c-1,1 0,9 8,21 9,11 10,13 10,13 0,0 0,21 0,20 0,-1 5,-22 5,-22 0,0 1,-9 -1,-19 -2,-9 -5,-12 -9,-14 -4,-1 -13,1 -13,1z"/>
   <path class="fil0" d="M52 58c-1,1 -6,5 -6,5l5 24 1 -29z"/>
   <path class="fil3" d="M54 132c-2,0 -4,1 -4,1 9,18 -5,25 0,36l35 0 1 0 0 0 35 0c5,-11 -9,-18 1,-36 -1,0 -3,-1 -5,-1 -2,11 -15,20 -31,20 -17,0 -30,-9 -32,-20z"/>
   <path class="fil6" d="M85 146c-6,-1 -12,-7 -14,-13 -1,-2 0,-4 1,-6 0,0 0,0 0,0 0,0 -1,1 -1,1 -2,1 -6,3 -8,5 0,0 0,1 0,1 0,4 6,4 6,4 0,0 0,2 0,4 1,5 3,8 5,8 3,1 7,-1 11,-4z"/>
   <path class="fil6" d="M85 146c5,-1 12,-7 13,-13 1,-2 1,-5 -1,-6 0,0 1,1 1,1 3,1 7,3 8,5 0,0 1,1 1,1 -1,4 -6,4 -6,4 0,0 0,2 -1,4 0,5 -2,8 -5,8 -3,1 -7,-1 -10,-4z"/>
   <path class="fil7" d="M84 77c0,0 1,0 2,0 0,0 1,0 2,0 0,0 1,1 1,2 0,1 1,2 1,3 1,2 1,4 2,6 2,3 5,3 8,4 5,0 9,1 15,-1 0,0 1,0 2,-1 1,0 2,-1 2,-2 1,-2 1,-3 2,-4 0,-1 0,-2 0,-3 1,-1 1,-2 1,-2 1,-1 1,-1 1,-2 0,0 0,0 0,-1 1,-1 1,-3 1,-4 0,-4 -18,-3 -20,-3 -1,0 -1,0 -2,0 -3,0 -7,1 -10,2 -1,0 -5,1 -6,1 -2,0 -6,-1 -7,-1 -2,-1 -7,-2 -9,-2 -1,0 -2,0 -3,0 -2,0 -19,-1 -19,3 0,1 0,3 0,4 0,1 0,1 0,1 0,1 1,1 1,2 0,0 1,1 1,2 0,1 0,2 1,3 0,1 1,2 1,4 1,1 1,2 2,2 1,1 2,1 3,1 5,2 9,1 14,1 3,-1 6,-1 8,-4 1,-2 2,-4 2,-6 1,-1 1,-2 1,-3 0,-1 1,-2 2,-2zm7 -2l0 0c0,-1 1,-2 2,-2 2,-2 5,-2 8,-2 5,-1 9,-1 14,0 1,0 3,0 4,1 1,0 1,1 1,2 0,3 0,6 -1,8 0,2 -1,5 -2,6 0,1 -1,2 -2,2 0,0 -1,0 -2,0 -4,2 -8,1 -13,1 -1,0 -2,-1 -3,-1 -1,0 -3,-1 -4,-3 -1,-2 -2,-5 -2,-7 0,-1 0,-2 0,-4 0,0 0,-1 0,-1zm-11 0l0 0c0,0 0,1 0,1 0,2 0,3 0,4 0,2 -1,5 -2,7 -1,2 -2,3 -4,3 -1,0 -2,1 -3,1 -4,0 -9,1 -13,-1 -1,0 -1,0 -2,0 -1,0 -2,-1 -2,-2 -1,-1 -2,-4 -2,-6 -1,-2 -1,-5 -1,-8 0,-1 0,-2 1,-2 1,-1 3,-1 4,-1 5,-1 10,-1 14,0 3,0 6,0 9,2 0,0 1,1 1,2z"/>
   <path class="fil0" d="M56 68c-2,1 1,-4 10,-4 10,0 13,5 9,3 -9,-3 -16,0 -19,1z"/>
   <g>
    <path class="fil7" d="M66 81c2,0 3,-2 3,-3 0,-2 -1,-3 -3,-3 -2,0 -3,1 -3,3 0,1 1,3 3,3z"/>
    <path class="fil7" d="M105 81c2,0 3,-2 3,-3 0,-2 -1,-3 -3,-3 -1,0 -3,1 -3,3 0,1 2,3 3,3z"/>
   </g>
   <path class="fil0" d="M117 68c2,1 -1,-4 -10,-4 -10,0 -13,5 -9,3 9,-3 16,0 19,1z"/>
   <path class="fil8" d="M94 104c0,0 0,1 0,1 0,5 -3,8 -8,8 -4,0 -7,-3 -7,-8 0,0 0,-1 0,-1l15 0z"/>
   <path class="fil9" d="M80 96c0,0 0,0 0,0 0,0 0,0 0,0 1,-3 4,-9 5,-17 1,0 -1,13 -2,16 1,0 2,0 3,0 4,0 7,0 7,1 0,1 -3,2 -7,2 -3,0 -6,-1 -6,-2z"/>
  </g>
 </g>
</svg>
