<?xml version="1.0" encoding="UTF-8"?>
<!DOCTYPE svg PUBLIC "-//W3C//DTD SVG 1.1//EN" "http://www.w3.org/Graphics/SVG/1.1/DTD/svg11.dtd">
<!-- Creator: CorelDRAW X8 -->
<svg xmlns="http://www.w3.org/2000/svg" xml:space="preserve" width="170px" height="170px" version="1.1" style="shape-rendering:geometricPrecision; text-rendering:geometricPrecision; image-rendering:optimizeQuality; fill-rule:evenodd; clip-rule:evenodd"
viewBox="0 0 170 170"
 xmlns:xlink="http://www.w3.org/1999/xlink">
 <defs>
  <style type="text/css">
   <![CDATA[
    .fil9 {fill:#3D3B3A}
    .fil0 {fill:#903D21}
    .fil2 {fill:#97BFD4}
    .fil1 {fill:#A8BCC6}
    .fil7 {fill:#AAC3CF}
    .fil4 {fill:#B5CCD8}
    .fil8 {fill:#C8E1ED}
    .fil10 {fill:#D6825B}
    .fil11 {fill:#E4B17C}
    .fil3 {fill:#F4B57E}
    .fil5 {fill:#F6BF85}
    .fil6 {fill:#F7C897}
   ]]>
  </style>
 </defs>
 <g id="Capa_x0020_1">
  <metadata id="CorelCorpID_0Corel-Layer"/>
  <g id="_1904555820912">
   <path class="fil0" d="M48 72c2,20 0,60 16,70 24,16 17,18 40,1 22,-17 19,-44 19,-73l-75 2z"/>
   <path class="fil0" d="M105 31c47,-9 17,97 11,120 -2,9 -5,7 -14,-7 0,0 17,-40 18,-63 1,-23 -7,-31 -12,-39 -5,-9 -3,-11 -3,-11z"/>
   <path class="fil0" d="M110 32c1,13 -2,14 -13,21 -10,7 -15,7 -13,6 2,0 10,-14 10,-14 0,0 -11,8 -22,13 -11,4 -15,2 -15,2 0,0 10,-12 9,-11 -2,1 -11,7 -12,10 -2,2 -4,15 -3,29 1,9 20,38 20,52 1,7 -10,17 -13,14 -12,-14 -14,-98 -13,-102 1,-11 7,-18 13,-23 14,-11 50,-11 52,3z"/>
   <path class="fil1" d="M101 146c1,0 19,-14 19,-14 8,3 11,26 11,37l-19 0 -11 -23z"/>
   <path class="fil2" d="M71 134c0,-1 1,-11 1,-11l26 0 0 8 -27 3z"/>
   <path class="fil3" d="M85 117l-9 0 0 6c0,3 0,2 -4,4 0,0 -3,3 -3,3 3,12 6,28 14,39l2 0 2 0c7,-11 10,-27 14,-39 -1,0 -4,-3 -4,-3 -3,-2 -4,-1 -4,-4l0 -6 -8 0z"/>
   <path class="fil1" d="M69 146c-1,0 -19,-14 -19,-14 -8,3 -11,26 -11,37l19 0 11 -23z"/>
   <path class="fil4" d="M79 139c-7,-3 -8,-11 -7,-12 -4,2 -21,4 -23,6 2,3 4,21 6,36l30 0 0 0 0 0 30 0c2,-15 4,-33 6,-36 -2,-2 -19,-4 -23,-6 1,1 0,9 -7,12l0 0 -6 20 -6 -20 0 0z"/>
   <g>
    <path class="fil5" d="M60 79c1,7 -2,12 -7,13 -5,1 -10,-2 -11,-9 -1,-6 1,-12 6,-13 5,-1 10,3 12,9z"/>
    <path class="fil5" d="M112 79c-2,7 1,12 6,13 5,1 10,-2 11,-9 2,-6 -1,-12 -6,-13 -5,-1 -10,3 -11,9z"/>
   </g>
   <path class="fil6" d="M86 23l0 0c-3,0 -5,0 -5,0l0 0c-1,0 -1,0 -1,0 -10,0 -20,6 -26,14 -6,9 -7,19 -7,29 2,27 16,56 39,56 22,0 37,-29 38,-56 1,-10 0,-20 -6,-29 -7,-8 -16,-14 -27,-14 0,0 0,0 0,0l0 0c0,0 -3,0 -5,0l0 0z"/>
   <path class="fil0" d="M102 33c-1,1 0,9 8,21 9,12 10,13 10,13 3,-5 2,-7 4,-1 0,0 2,-10 0,-20 -2,-9 -5,-12 -9,-14 -4,-1 -13,1 -13,1z"/>
   <path class="fil0" d="M52 58c-1,1 -7,-7 -6,3 1,10 3,22 6,29 -1,-9 -4,-20 0,-32z"/>
   <path class="fil0" d="M122 67c1,-6 2,-23 0,-27 -5,-12 -14,-17 -29,-18 -4,-1 3,7 3,7 12,18 6,31 26,38z"/>
   <path class="fil0" d="M106 36c-35,6 -30,35 -58,31 -1,0 -3,-9 -3,-9 0,0 3,-13 8,-21 5,-8 11,-10 17,-13 6,-2 23,-4 25,-1l11 13z"/>
   <polygon class="fil7" points="78,135 82,136 81,147 76,140 "/>
   <polygon class="fil8" points="68,127 72,123 82,136 72,145 "/>
   <polygon class="fil7" points="92,134 88,136 88,146 94,140 "/>
   <polygon class="fil8" points="102,127 98,123 88,136 98,145 "/>
   <path class="fil4" d="M53 131c-2,1 -3,1 -4,2 9,18 -4,25 1,36l35 0 0 0 0 0 35 0c5,-11 -8,-18 1,-36 -1,-1 -2,-1 -4,-2 -3,14 -18,31 -33,31 -14,0 -28,-17 -31,-31z"/>
   <g>
    <path class="fil9" d="M70 84c1,0 3,-1 3,-3 0,-1 -2,-3 -3,-3 -2,0 -3,2 -3,3 0,2 1,3 3,3z"/>
    <path class="fil9" d="M103 84c2,0 3,-1 3,-3 0,-1 -1,-3 -3,-3 -1,0 -3,2 -3,3 0,2 2,3 3,3z"/>
   </g>
   <path class="fil10" d="M97 101c-2,11 -18,11 -20,0 6,8 15,8 20,0z"/>
   <path class="fil11" d="M80 96c0,0 0,0 0,0 0,0 1,0 1,0 1,-3 3,-10 4,-17 2,0 -1,13 -2,16 1,0 2,0 4,0 3,0 6,0 6,1 0,1 -3,2 -6,2 -4,0 -6,-1 -7,-2z"/>
   <g>
    <path class="fil0" d="M94 74c-1,0 2,-5 10,-5 10,0 13,5 9,4 -8,-3 -16,-1 -19,1z"/>
    <path class="fil0" d="M79 74c1,0 -1,-5 -10,-5 -10,0 -13,5 -9,4 8,-3 16,-1 19,1z"/>
   </g>
   <path class="fil0" d="M119 58c1,2 7,-6 6,4 -1,10 -3,21 -6,29 2,-10 4,-21 0,-33z"/>
  </g>
 </g>
</svg>
